<svg width="57" height="36" viewBox="0 0 57 36" fill="none" xmlns="http://www.w3.org/2000/svg">
<path d="M35.1069 34.687C36.0386 35.706 37.6199 35.7767 38.6389 34.845L55.2436 19.6617C56.2626 18.73 56.3333 17.1487 55.4016 16.1297C54.4699 15.1108 52.8885 15.04 51.8696 15.9718L37.1098 29.468L23.6136 14.7082C22.6818 13.6892 21.1005 13.6185 20.0816 14.5503C19.0626 15.482 18.9919 17.0633 19.9236 18.0823L35.1069 34.687ZM1.42331 6.02495C7.35246 5.0063 16.0464 5.22159 22.9767 8.91308C26.395 10.7338 29.373 13.3905 31.442 17.1819C33.5152 20.981 34.7591 26.0733 34.4543 32.8883L39.4494 33.1117C39.7866 25.5702 38.4224 19.5355 35.831 14.7868C33.2355 10.0306 29.4927 6.71876 25.3273 4.50008C17.0905 0.112651 7.16649 -0.0350037 0.576695 1.09714L1.42331 6.02495Z" fill="white"/>
</svg>
