<svg width="24" height="23" viewBox="0 0 24 23" fill="none" xmlns="http://www.w3.org/2000/svg">
<g clip-path="url(#clip0_2_138)">
<path d="M24 11.5C24 5.14872 18.6274 0 12 0C5.37258 0 0 5.14872 0 11.5C0 17.2399 4.3882 21.9976 10.125 22.8603V14.8242H7.07812V11.5H10.125V8.96641C10.125 6.08422 11.9166 4.49219 14.6576 4.49219C15.9701 4.49219 17.3438 4.7168 17.3438 4.7168V7.54687H15.8306C14.34 7.54687 13.875 8.43341 13.875 9.34375V11.5H17.2031L16.6711 14.8242H13.875V22.8603C19.6118 21.9976 24 17.2399 24 11.5Z" fill="#1877F2"/>
<path d="M16.6711 14.8242L17.2031 11.5H13.875V9.34375C13.875 8.43431 14.34 7.54687 15.8306 7.54687H17.3438V4.7168C17.3438 4.7168 15.9705 4.49219 14.6576 4.49219C11.9166 4.49219 10.125 6.08422 10.125 8.96641V11.5H7.07812V14.8242H10.125V22.8603C11.3674 23.0466 12.6326 23.0466 13.875 22.8603V14.8242H16.6711Z" fill="white"/>
</g>
<defs>
<clipPath id="clip0_2_138">
<rect width="24" height="23" fill="white"/>
</clipPath>
</defs>
</svg>
