<svg width="25" height="26" viewBox="0 0 25 26" fill="none" xmlns="http://www.w3.org/2000/svg">
<path d="M24.93 7.63971C24.87 6.2554 24.6549 5.30825 24.3499 4.48079C24.0298 3.6273 23.6047 2.89872 22.9096 2.18054C22.2145 1.46237 21.5193 1.00961 20.6992 0.681745C19.904 0.359087 18.9938 0.140512 17.6635 0.0780625C16.3283 0.0156125 15.9032 0 12.5125 0C9.11683 0 8.69175 0.0156125 7.36148 0.0780625C6.03122 0.140512 5.12104 0.364291 4.32588 0.681745C3.50071 1.01481 2.80057 1.45717 2.11043 2.18054C1.4203 2.90392 0.985209 3.6273 0.670146 4.48079C0.365085 5.30825 0.150042 6.2554 0.0900297 7.63971C0.0300176 9.02922 0.0150146 9.47158 0.0150146 13C0.0150146 16.5336 0.0300176 16.976 0.0900297 18.3603C0.150042 19.7446 0.365085 20.6918 0.670146 21.5192C0.99021 22.3727 1.41529 23.1013 2.11043 23.8195C2.80057 24.5428 3.50071 24.9904 4.32088 25.3183C5.11603 25.6409 6.02622 25.8595 7.35648 25.9219C8.69175 25.9844 9.11684 26 12.5075 26C15.9032 26 16.3283 25.9844 17.6585 25.9219C18.9888 25.8595 19.899 25.6357 20.6942 25.3183C21.5143 24.9852 22.2145 24.5428 22.9046 23.8195C23.5947 23.0961 24.0298 22.3727 24.3449 21.5192C24.6549 20.6918 24.865 19.7446 24.925 18.3603C24.985 16.9708 25 16.5284 25 13C25 9.47158 24.99 9.02402 24.93 7.63971ZM22.6845 18.2562C22.6295 19.526 22.4245 20.2182 22.2545 20.6709C22.0294 21.2746 21.7544 21.7118 21.3143 22.1697C20.8742 22.6277 20.4591 22.9035 19.874 23.1481C19.4339 23.3251 18.7688 23.5384 17.5535 23.5957C16.2383 23.6581 15.8432 23.6737 12.5025 23.6737C9.16184 23.6737 8.76677 23.6581 7.4515 23.5957C6.23126 23.5384 5.56612 23.3251 5.13104 23.1481C4.55092 22.9139 4.13084 22.6277 3.69075 22.1697C3.25066 21.7118 2.98561 21.2798 2.75056 20.6709C2.58053 20.213 2.37549 19.5208 2.32048 18.2562C2.26046 16.8875 2.24546 16.4764 2.24546 13C2.24546 9.52362 2.26046 9.11249 2.32048 7.7438C2.37549 6.47398 2.58053 5.78183 2.75056 5.32906C2.97561 4.72538 3.25066 4.28823 3.69075 3.83026C4.13084 3.3723 4.54592 3.09648 5.13104 2.85188C5.57113 2.67494 6.23626 2.46157 7.4515 2.40432C8.76677 2.34187 9.16184 2.32626 12.5025 2.32626C15.8432 2.32626 16.2383 2.34187 17.5535 2.40432C18.7738 2.46157 19.4389 2.67494 19.874 2.85188C20.4541 3.08607 20.8742 3.3723 21.3143 3.83026C21.7544 4.28823 22.0194 4.72018 22.2545 5.32906C22.4245 5.78703 22.6295 6.47918 22.6845 7.7438C22.7446 9.11249 22.7596 9.52362 22.7596 13C22.7596 16.4764 22.7396 16.8875 22.6845 18.2562Z" fill="url(#paint0_linear_91_166)"/>
<path d="M12.5026 6.31787C8.95187 6.31787 6.0813 9.31026 6.0813 13C6.0813 16.695 8.95687 19.6822 12.5026 19.6822C16.0483 19.6822 18.9239 16.6846 18.9239 13C18.9239 9.30506 16.0533 6.31787 12.5026 6.31787ZM12.5026 17.3351C10.2021 17.3351 8.33675 15.3939 8.33675 13C8.33675 10.6061 10.2021 8.66495 12.5026 8.66495C14.803 8.66495 16.6684 10.6061 16.6684 13C16.6684 15.3939 14.803 17.3351 12.5026 17.3351Z" fill="url(#paint1_linear_91_166)"/>
<path d="M19.1739 7.61884C20.0025 7.61884 20.6742 6.91984 20.6742 6.05759C20.6742 5.19533 20.0025 4.49634 19.1739 4.49634C18.3453 4.49634 17.6736 5.19533 17.6736 6.05759C17.6736 6.91984 18.3453 7.61884 19.1739 7.61884Z" fill="#BC30A0"/>
<path d="M0 13C0 16.5336 0.015003 16.976 0.075015 18.3603C0.135027 19.7446 0.35007 20.6918 0.655131 21.5192C0.975195 22.3727 1.40028 23.1013 2.09542 23.8195C2.78556 24.5376 3.4857 24.9904 4.30586 25.3183C5.10102 25.6409 6.0112 25.8595 7.34147 25.9219C8.67674 25.9844 9.10182 26 12.4925 26C15.8882 26 16.3133 25.9844 17.6435 25.9219C18.9738 25.8595 19.884 25.6357 20.6791 25.3183C21.4993 24.9852 22.1994 24.5428 22.8896 23.8195C23.5797 23.1013 24.0148 22.3727 24.3299 21.5192C24.6399 20.6918 24.85 19.7446 24.91 18.3603C24.97 16.9708 24.985 16.5284 24.985 13C24.985 9.46637 24.97 9.02402 24.91 7.63971C24.85 6.2554 24.6349 5.30825 24.3299 4.48079C24.0098 3.6273 23.5847 2.89872 22.8896 2.18054C22.2044 1.45717 21.5043 1.00961 20.6841 0.681745C19.889 0.359087 18.9788 0.140512 17.6485 0.0780625C16.3133 0.0156125 15.8882 0 12.4975 0C9.10182 0 8.67673 0.0156125 7.34647 0.0780625C6.0162 0.140512 5.10602 0.364291 4.31086 0.681745C3.4907 1.01481 2.79056 1.45717 2.10042 2.18054C1.41028 2.90392 0.975195 3.6273 0.660132 4.48079C0.35007 5.30825 0.135027 6.2554 0.075015 7.63971C0.015003 9.02402 0 9.46637 0 13ZM2.25545 13C2.25545 9.52882 2.27045 9.11249 2.33047 7.7438C2.38548 6.47398 2.59052 5.78183 2.76055 5.32906C2.9856 4.72538 3.26065 4.28823 3.70074 3.83026C4.14083 3.3723 4.55591 3.09648 5.14103 2.85188C5.58112 2.67494 6.24625 2.46157 7.46149 2.40432C8.77675 2.34187 9.17183 2.32626 12.5125 2.32626C15.8532 2.32626 16.2482 2.34187 17.5635 2.40432C18.7838 2.46157 19.4489 2.67494 19.884 2.85188C20.4641 3.08607 20.8842 3.3723 21.3243 3.83026C21.7644 4.28823 22.0294 4.72018 22.2645 5.32906C22.4345 5.78703 22.6395 6.47918 22.6945 7.7438C22.7545 9.11249 22.7696 9.52362 22.7696 13C22.7696 16.4764 22.7545 16.8875 22.6945 18.2562C22.6395 19.526 22.4345 20.2182 22.2645 20.6709C22.0394 21.2746 21.7644 21.7118 21.3243 22.1697C20.8842 22.6277 20.4691 22.9035 19.884 23.1481C19.4439 23.3251 18.7788 23.5384 17.5635 23.5957C16.2482 23.6581 15.8532 23.6737 12.5125 23.6737C9.17183 23.6737 8.77675 23.6581 7.46149 23.5957C6.24125 23.5384 5.57612 23.3251 5.14103 23.1481C4.56091 22.9139 4.14083 22.6277 3.70074 22.1697C3.26065 21.7118 2.9956 21.2798 2.76055 20.6709C2.59052 20.213 2.38548 19.5208 2.33047 18.2562C2.26545 16.8875 2.25545 16.4712 2.25545 13Z" fill="url(#paint2_linear_91_166)"/>
<defs>
<linearGradient id="paint0_linear_91_166" x1="21.1411" y1="1.98814" x2="2.1975" y2="24.3051" gradientUnits="userSpaceOnUse">
<stop stop-color="#AE3DAE"/>
<stop offset="0.0468721" stop-color="#B23BA6"/>
<stop offset="0.1216" stop-color="#BD368E"/>
<stop offset="0.2148" stop-color="#CE2E69"/>
<stop offset="0.3216" stop-color="#E62335"/>
<stop offset="0.418" stop-color="#FF1800"/>
</linearGradient>
<linearGradient id="paint1_linear_91_166" x1="15.5649" y1="7.64061" x2="8.60712" y2="18.8824" gradientUnits="userSpaceOnUse">
<stop stop-color="#E12F6A"/>
<stop offset="0.1705" stop-color="#EA3751"/>
<stop offset="0.3563" stop-color="#F13D3E"/>
<stop offset="0.5467" stop-color="#F64133"/>
<stop offset="0.7469" stop-color="#F7422F"/>
<stop offset="0.7946" stop-color="#F74C2F"/>
<stop offset="0.8743" stop-color="#F7652F"/>
<stop offset="0.9757" stop-color="#F78F2E"/>
<stop offset="1" stop-color="#F79A2E"/>
</linearGradient>
<linearGradient id="paint2_linear_91_166" x1="18.1647" y1="-1.07037" x2="6.33916" y2="26.0333" gradientUnits="userSpaceOnUse">
<stop offset="0.2341" stop-color="#9E35A5" stop-opacity="0"/>
<stop offset="0.4512" stop-color="#D42F7F" stop-opacity="0.5"/>
<stop offset="0.7524" stop-color="#F7772E"/>
<stop offset="0.9624" stop-color="#FEF780"/>
</linearGradient>
</defs>
</svg>
