<svg width="24" height="23" viewBox="0 0 24 23" fill="none" xmlns="http://www.w3.org/2000/svg">
<path d="M17.1765 8.30245C18.7199 9.36349 20.6105 9.98778 22.6526 9.98778V6.20863C22.2661 6.20871 21.8807 6.16995 21.5026 6.09291V9.06764C19.4607 9.06764 17.5703 8.44335 16.0265 7.38239V15.0945C16.0265 18.9526 12.7746 22.0799 8.76339 22.0799C7.26672 22.0799 5.87562 21.6447 4.72003 20.8984C6.03894 22.1954 7.87827 22.9999 9.91315 22.9999C13.9246 22.9999 17.1767 19.8726 17.1767 16.0144V8.30245H17.1765V8.30245ZM18.5952 4.48974C17.8064 3.66101 17.2886 2.59002 17.1765 1.406V0.919922H16.0867C16.361 2.42481 17.2967 3.7105 18.5952 4.48974ZM7.25712 17.9379C6.81644 17.3822 6.5783 16.7024 6.57937 16.0034C6.57937 14.2389 8.06678 12.8082 9.90183 12.8082C10.2438 12.8081 10.5838 12.8585 10.9097 12.9579V9.09432C10.5288 9.04412 10.1444 9.02281 9.76017 9.03062V12.0379C9.43401 11.9384 9.0939 11.8879 8.75183 11.8882C6.91677 11.8882 5.42945 13.3188 5.42945 15.0835C5.42945 16.3313 6.1729 17.4116 7.25712 17.9379Z" fill="#FF004F"/>
<path d="M16.0265 7.38231C17.5702 8.44327 19.4607 9.06756 21.5025 9.06756V6.09283C20.3628 5.85934 19.3538 5.28651 18.5951 4.48975C17.2966 3.71042 16.361 2.42473 16.0867 0.919922H13.2241V16.0143C13.2176 17.774 11.7327 19.1988 9.90162 19.1988C8.82257 19.1988 7.86394 18.7042 7.25682 17.9379C6.17269 17.4116 5.42923 16.3312 5.42923 15.0836C5.42923 13.319 6.91655 11.8883 8.75161 11.8883C9.1032 11.8883 9.44208 11.9409 9.75995 12.038V9.0307C5.81921 9.10901 2.6499 12.2058 2.6499 16.0144C2.6499 17.9156 3.43913 19.6391 4.72006 20.8985C5.87565 21.6447 7.26675 22.08 8.76342 22.08C12.7747 22.08 16.0265 18.9525 16.0265 15.0945V7.38231H16.0265Z" fill="black"/>
<path d="M21.5025 6.09289V5.28855C20.4748 5.29005 19.4672 5.01322 18.5952 4.48973C19.3671 5.30252 20.3835 5.86296 21.5025 6.09289ZM16.0867 0.919984C16.0605 0.776165 16.0404 0.631399 16.0265 0.48608V0H12.074V15.0945C12.0677 16.854 10.5829 18.2788 8.75164 18.2788C8.214 18.2788 7.70638 18.1561 7.25685 17.938C7.86397 18.7042 8.82259 19.1988 9.90164 19.1988C11.7326 19.1988 13.2177 17.7741 13.2241 16.0144V0.919984H16.0867ZM9.76014 9.03076V8.17448C9.42988 8.13107 9.09691 8.10928 8.76353 8.10944C4.75192 8.10936 1.5 11.2368 1.5 15.0945C1.5 17.5131 2.77806 19.6446 4.72017 20.8984C3.43924 19.6391 2.65001 17.9155 2.65001 16.0144C2.65001 12.2058 5.81924 9.10907 9.76014 9.03076Z" fill="#00F2EA"/>
</svg>
