<svg width="25" height="26" viewBox="0 0 25 26" fill="none" xmlns="http://www.w3.org/2000/svg">
<g clip-path="url(#clip0_91_139)">
<path d="M6.10352e-05 26L1.76701 19.327C0.674607 17.3683 0.101541 15.1502 0.107511 12.8826C0.107511 5.77709 5.6949 0 12.5538 0C15.8847 0 19.0127 1.34078 21.3587 3.77519C23.7106 6.2096 25.006 9.44725 25 12.8888C25 19.9943 19.4127 25.7714 12.5478 25.7714H12.5418C10.4585 25.7714 8.41099 25.2277 6.59031 24.202L6.10352e-05 26ZM6.90669 21.8726L7.28277 22.1074C8.87064 23.0837 10.6913 23.5965 12.5478 23.6027H12.5538C18.2546 23.6027 22.8988 18.8018 22.8988 12.895C22.8988 10.0342 21.8243 7.34648 19.8723 5.31987C17.9203 3.29325 15.3176 2.18108 12.5538 2.18108C6.85297 2.17491 2.20875 6.97576 2.20875 12.8826C2.20875 14.903 2.75197 16.8741 3.79065 18.5794L4.0354 18.9872L2.99075 22.9354L6.90669 21.8726Z" fill="white"/>
<path d="M0.435791 25.549L2.14305 19.1046C1.08646 17.2201 0.531302 15.0761 0.531302 12.8888C0.537271 6.03042 5.92767 0.45105 12.5537 0.45105C15.7713 0.45105 18.7858 1.74858 21.0542 4.09649C23.3226 6.4444 24.5702 9.57082 24.5702 12.895C24.5702 19.7533 19.1738 25.3327 12.5537 25.3327H12.5478C10.5361 25.3327 8.56019 24.8075 6.80517 23.8189L0.435791 25.549Z" fill="url(#paint0_linear_91_139)"/>
<path d="M6.10352e-05 26L1.76701 19.327C0.674607 17.3683 0.101541 15.1502 0.107511 12.8826C0.107511 5.77709 5.6949 0 12.5538 0C15.8847 0 19.0127 1.34078 21.3587 3.77519C23.7106 6.2096 25.006 9.44725 25 12.8888C25 19.9943 19.4127 25.7714 12.5478 25.7714H12.5418C10.4585 25.7714 8.41099 25.2277 6.59031 24.202L6.10352e-05 26ZM6.90669 21.8726L7.28277 22.1074C8.87064 23.0837 10.6913 23.5965 12.5478 23.6027H12.5538C18.2546 23.6027 22.8988 18.8018 22.8988 12.895C22.8988 10.0342 21.8243 7.34648 19.8723 5.31987C17.9203 3.29325 15.3176 2.18108 12.5538 2.18108C6.85297 2.17491 2.20875 6.97576 2.20875 12.8826C2.20875 14.903 2.75197 16.8741 3.79065 18.5794L4.0354 18.9872L2.99075 22.9354L6.90669 21.8726Z" fill="url(#paint1_linear_91_139)"/>
<path fill-rule="evenodd" clip-rule="evenodd" d="M9.44361 7.49476C9.2108 6.95721 8.96606 6.94485 8.74519 6.93867C8.5661 6.9325 8.35717 6.9325 8.14824 6.9325C7.93931 6.9325 7.60502 7.01282 7.31849 7.33411C7.03196 7.6554 6.23206 8.43392 6.23206 10.0218C6.23206 11.6036 7.34834 13.1359 7.50354 13.3522C7.65875 13.5684 9.65851 16.9235 12.8163 18.2148C15.4429 19.2899 15.9801 19.0737 16.5472 19.018C17.1143 18.9624 18.3858 18.2395 18.6485 17.4857C18.9052 16.7319 18.9052 16.0893 18.8276 15.9534C18.75 15.8175 18.541 15.7372 18.2306 15.5765C17.9202 15.4159 16.392 14.6373 16.1055 14.5261C15.819 14.4211 15.61 14.3655 15.4071 14.6868C15.1981 15.0081 14.6012 15.731 14.4221 15.9472C14.243 16.1635 14.058 16.1882 13.7476 16.0276C13.4372 15.8669 12.4343 15.5271 11.2464 14.4273C10.3211 13.5746 9.69433 12.518 9.51524 12.1968C9.33616 11.8755 9.49733 11.7025 9.65254 11.5418C9.78984 11.3997 9.96295 11.1649 10.1182 10.9795C10.2734 10.7942 10.3271 10.6583 10.4286 10.442C10.53 10.2257 10.4823 10.0404 10.4047 9.87974C10.3271 9.72527 9.7182 8.13116 9.44361 7.49476Z" fill="white"/>
</g>
<defs>
<linearGradient id="paint0_linear_91_139" x1="12.5024" y1="25.5477" x2="12.5024" y2="0.450172" gradientUnits="userSpaceOnUse">
<stop stop-color="#20B038"/>
<stop offset="1" stop-color="#60D66A"/>
</linearGradient>
<linearGradient id="paint1_linear_91_139" x1="12.5025" y1="25.9975" x2="12.5025" y2="0" gradientUnits="userSpaceOnUse">
<stop stop-color="#F9F9F9"/>
<stop offset="1" stop-color="white"/>
</linearGradient>
<clipPath id="clip0_91_139">
<rect width="25" height="26" rx="6" fill="white"/>
</clipPath>
</defs>
</svg>
